# xmcd
#
# Track frame offsets: 
#        150
#        17675
#        37350
#        58600
#        78350
#        94488
#        114976
#        137314
#        158364
#        177402
#
# Disc length: 2619 seconds
#
# Revision: 7
# Processed by: cddbd v1.5.2PL0 Copyright (c) Steve Scherf et al.
# Submitted via: ExactAudioCopyFreeDBPlugin 1.0
#
DISCID=780a390a
DTITLE=王菲 - 胡思亂想
DYEAR=1994
DGENRE=Pop
TTITLE0=胡思亂想
TTITLE1=誓言
TTITLE2=天與地
TTITLE3=夢中人
TTITLE4=知己知彼
TTITLE5=純情
TTITLE6=遊戲的終點
TTITLE7=夢遊
TTITLE8=藍色時份
TTITLE9=回憶是紅色的天空
EXTD=
EXTT0=
EXTT1=
EXTT2=
EXTT3=
EXTT4=
EXTT5=
EXTT6=
EXTT7=
EXTT8=
EXTT9=
PLAYORDER=
